<svg width="57" height="58" viewBox="0 0 57 58" fill="none" xmlns="http://www.w3.org/2000/svg">
<path d="M35.6963 7.40412C39.045 6.44937 42.4864 7.35425 44.9018 9.81237C45.2509 10.1686 45.714 10.3467 46.1771 10.3467C46.626 10.3467 47.0749 10.1757 47.424 9.84087C48.1294 9.14975 48.1365 8.024 47.4525 7.31862C44.1038 3.91287 39.3514 2.65887 34.7201 3.977C33.7725 4.24775 33.2239 5.231 33.4946 6.17862C33.7654 7.12625 34.7486 7.67487 35.6963 7.40412ZM21.5888 51.1231C17.8268 49.4416 14.8271 46.8267 12.9176 43.5564C12.4189 42.7085 11.3288 42.4164 10.4809 42.9151C9.63301 43.4139 9.34089 44.504 9.83963 45.3519C12.1268 49.2706 15.6821 52.3914 20.1353 54.3792C20.3704 54.4861 20.6198 54.536 20.862 54.536C21.546 54.536 22.1944 54.1441 22.4865 53.4815C22.8926 52.5766 22.4865 51.5221 21.5888 51.1231ZM49.4903 22.6587L48.3289 20.6637C47.8301 19.8159 46.74 19.5237 45.8921 20.0225C45.0443 20.5212 44.7521 21.6114 45.2509 22.4592L46.4123 24.4542C50.2241 30.995 47.3813 40.115 39.3941 44.6821C37.3279 45.8649 35.1476 46.5987 32.9888 46.9194C32.0126 47.0619 31.3429 47.9739 31.4925 48.9429C31.635 49.919 32.547 50.5887 33.516 50.4391C36.1095 50.0472 38.7101 49.1709 41.1611 47.7673C50.4806 42.4449 54.5063 31.2657 49.4903 22.6587ZM21.8168 11.0379C21.318 10.1829 21.5816 8.67237 23.0779 7.81025C24.5813 6.94812 26.0633 7.47537 26.5763 8.35175L32.5755 18.6402L35.739 24.0624C31.806 27.1831 30.2243 32.5197 32.7394 36.8304C33.2381 37.6782 34.3283 37.9704 35.1761 37.4716C36.024 36.9729 36.3161 35.8827 35.8174 35.0349C34.2143 32.2846 35.3329 28.2376 39.0023 26.1429C39.4155 25.9077 39.7148 25.5159 39.8359 25.0599C39.957 24.6039 39.8929 24.1122 39.6506 23.699L35.6535 16.8447C35.1548 15.9897 35.4184 14.4792 36.9146 13.6171C38.418 12.755 39.9 13.2822 40.413 14.1586C40.9118 15.0065 42.0019 15.2986 42.8498 14.7999C43.6976 14.3011 43.9898 13.211 43.491 12.3631C41.7881 9.449 37.9763 8.91462 35.1476 10.5249C34.314 11.0022 33.6015 11.6435 33.0529 12.3916L29.6543 6.55625C27.9514 3.64212 24.1395 3.10775 21.3109 4.718C20.4416 5.21675 19.7006 5.90075 19.1449 6.69162C17.2425 4.604 13.9721 4.3475 11.4784 5.7725C8.64976 7.38987 7.19626 10.9524 8.90626 13.8879L11.286 17.9705C10.374 18.0702 9.46201 18.3552 8.64263 18.8255C5.81401 20.4429 4.36051 24.0054 6.07051 26.9337L15.0694 42.3665C16.6013 44.9956 18.7886 47.0334 21.3465 48.4299C22.2086 48.9001 23.2916 48.5866 23.7619 47.7174C24.2321 46.8552 23.9186 45.7722 23.0494 45.302C21.0259 44.1976 19.323 42.6016 18.1403 40.571L9.14851 25.1382C8.64976 24.2832 8.91338 22.7727 10.4096 21.9106C11.913 21.0485 13.395 21.5757 13.908 22.4521L17.9051 29.3064C18.4039 30.1542 19.494 30.4464 20.3419 29.9476C21.1898 29.4489 21.4819 28.3587 20.9831 27.5109L16.9789 20.6637L11.9771 12.0924C11.4784 11.2374 11.742 9.72687 13.2383 8.86475C14.7416 8.00262 16.2236 8.52987 16.7366 9.40625L18.7388 12.8334L24.738 23.1219C25.2368 23.9697 26.3269 24.2619 27.1748 23.7631C28.0226 23.2644 28.3148 22.1742 27.816 21.3264L21.8168 11.0379Z" fill="url(#paint0_linear_60_34)"/>
<defs>
<linearGradient id="paint0_linear_60_34" x1="5.33713" y1="28.9996" x2="51.6651" y2="28.9996" gradientUnits="userSpaceOnUse">
<stop stop-color="#F15BA3"/>
<stop offset="1" stop-color="#5D51F3"/>
</linearGradient>
</defs>
</svg>
